<svg width="177" height="25" viewBox="0 0 177 25" fill="none" xmlns="http://www.w3.org/2000/svg">
<path d="M0.05 13.5C0.05 11.44 0.51 9.6 1.43 7.98C2.37 6.34 3.64 5.07 5.24 4.17C6.86 3.25 8.67 2.79 10.67 2.79C13.01 2.79 15.06 3.39 16.82 4.59C18.58 5.79 19.81 7.45 20.51 9.57H15.68C15.2 8.57 14.52 7.82 13.64 7.32C12.78 6.82 11.78 6.57 10.64 6.57C9.42 6.57 8.33 6.86 7.37 7.44C6.43 8 5.69 8.8 5.15 9.84C4.63 10.88 4.37 12.1 4.37 13.5C4.37 14.88 4.63 16.1 5.15 17.16C5.69 18.2 6.43 19.01 7.37 19.59C8.33 20.15 9.42 20.43 10.64 20.43C11.78 20.43 12.78 20.18 13.64 19.68C14.52 19.16 15.2 18.4 15.68 17.4H20.51C19.81 19.54 18.58 21.21 16.82 22.41C15.08 23.59 13.03 24.18 10.67 24.18C8.67 24.18 6.86 23.73 5.24 22.83C3.64 21.91 2.37 20.64 1.43 19.02C0.51 17.4 0.05 15.56 0.05 13.5ZM23.0173 15.63C23.0173 13.95 23.3473 12.46 24.0073 11.16C24.6873 9.86 25.5973 8.86 26.7373 8.16C27.8973 7.46 29.1873 7.11 30.6073 7.11C31.8473 7.11 32.9273 7.36 33.8473 7.86C34.7873 8.36 35.5373 8.99 36.0973 9.75V7.38H40.3273V24H36.0973V21.57C35.5573 22.35 34.8073 23 33.8473 23.52C32.9073 24.02 31.8173 24.27 30.5773 24.27C29.1773 24.27 27.8973 23.91 26.7373 23.19C25.5973 22.47 24.6873 21.46 24.0073 20.16C23.3473 18.84 23.0173 17.33 23.0173 15.63ZM36.0973 15.69C36.0973 14.67 35.8973 13.8 35.4973 13.08C35.0973 12.34 34.5573 11.78 33.8773 11.4C33.1973 11 32.4673 10.8 31.6873 10.8C30.9073 10.8 30.1873 10.99 29.5273 11.37C28.8673 11.75 28.3273 12.31 27.9073 13.05C27.5073 13.77 27.3073 14.63 27.3073 15.63C27.3073 16.63 27.5073 17.51 27.9073 18.27C28.3273 19.01 28.8673 19.58 29.5273 19.98C30.2073 20.38 30.9273 20.58 31.6873 20.58C32.4673 20.58 33.1973 20.39 33.8773 20.01C34.5573 19.61 35.0973 19.05 35.4973 18.33C35.8973 17.59 36.0973 16.71 36.0973 15.69ZM48.6294 9.81C49.1694 9.01 49.9094 8.36 50.8494 7.86C51.8094 7.36 52.8994 7.11 54.1194 7.11C55.5394 7.11 56.8194 7.46 57.9594 8.16C59.1194 8.86 60.0294 9.86 60.6894 11.16C61.3694 12.44 61.7094 13.93 61.7094 15.63C61.7094 17.33 61.3694 18.84 60.6894 20.16C60.0294 21.46 59.1194 22.47 57.9594 23.19C56.8194 23.91 55.5394 24.27 54.1194 24.27C52.8794 24.27 51.7894 24.03 50.8494 23.55C49.9294 23.05 49.1894 22.41 48.6294 21.63V24H44.4294V1.8H48.6294V9.81ZM57.4194 15.63C57.4194 14.63 57.2094 13.77 56.7894 13.05C56.3894 12.31 55.8494 11.75 55.1694 11.37C54.5094 10.99 53.7894 10.8 53.0094 10.8C52.2494 10.8 51.5294 11 50.8494 11.4C50.1894 11.78 49.6494 12.34 49.2294 13.08C48.8294 13.82 48.6294 14.69 48.6294 15.69C48.6294 16.69 48.8294 17.56 49.2294 18.3C49.6494 19.04 50.1894 19.61 50.8494 20.01C51.5294 20.39 52.2494 20.58 53.0094 20.58C53.7894 20.58 54.5094 20.38 55.1694 19.98C55.8494 19.58 56.3894 19.01 56.7894 18.27C57.2094 17.53 57.4194 16.65 57.4194 15.63ZM66.8914 5.4C66.1514 5.4 65.5314 5.17 65.0314 4.71C64.5514 4.23 64.3114 3.64 64.3114 2.94C64.3114 2.24 64.5514 1.66 65.0314 1.2C65.5314 0.719999 66.1514 0.479999 66.8914 0.479999C67.6314 0.479999 68.2414 0.719999 68.7214 1.2C69.2214 1.66 69.4714 2.24 69.4714 2.94C69.4714 3.64 69.2214 4.23 68.7214 4.71C68.2414 5.17 67.6314 5.4 66.8914 5.4ZM68.9614 7.38V24H64.7614V7.38H68.9614ZM82.321 7.14C84.301 7.14 85.901 7.77 87.121 9.03C88.341 10.27 88.951 12.01 88.951 14.25V24H84.751V14.82C84.751 13.5 84.421 12.49 83.761 11.79C83.101 11.07 82.201 10.71 81.061 10.71C79.901 10.71 78.981 11.07 78.301 11.79C77.641 12.49 77.311 13.5 77.311 14.82V24H73.111V7.38H77.311V9.45C77.871 8.73 78.581 8.17 79.441 7.77C80.321 7.35 81.281 7.14 82.321 7.14ZM108.395 15.33C108.395 15.93 108.355 16.47 108.275 16.95H96.125C96.225 18.15 96.645 19.09 97.385 19.77C98.125 20.45 99.035 20.79 100.115 20.79C101.675 20.79 102.785 20.12 103.445 18.78H107.975C107.495 20.38 106.575 21.7 105.215 22.74C103.855 23.76 102.185 24.27 100.205 24.27C98.605 24.27 97.165 23.92 95.885 23.22C94.625 22.5 93.635 21.49 92.915 20.19C92.215 18.89 91.865 17.39 91.865 15.69C91.865 13.97 92.215 12.46 92.915 11.16C93.615 9.86 94.595 8.86 95.855 8.16C97.115 7.46 98.565 7.11 100.205 7.11C101.785 7.11 103.195 7.45 104.435 8.13C105.695 8.81 106.665 9.78 107.345 11.04C108.045 12.28 108.395 13.71 108.395 15.33ZM104.045 14.13C104.025 13.05 103.635 12.19 102.875 11.55C102.115 10.89 101.185 10.56 100.085 10.56C99.045 10.56 98.165 10.88 97.445 11.52C96.745 12.14 96.315 13.01 96.155 14.13H104.045ZM116.351 10.83V18.87C116.351 19.43 116.481 19.84 116.741 20.1C117.021 20.34 117.481 20.46 118.121 20.46H120.071V24H117.431C113.891 24 112.121 22.28 112.121 18.84V10.83H110.141V7.38H112.121V3.27H116.351V7.38H120.071V10.83H116.351Z" fill="black"/>
<path d="M145.51 9.54C145.51 10.66 145.24 11.71 144.7 12.69C144.18 13.67 143.35 14.46 142.21 15.06C141.09 15.66 139.67 15.96 137.95 15.96H134.44V24H130.24V3.06H137.95C139.57 3.06 140.95 3.34 142.09 3.9C143.23 4.46 144.08 5.23 144.64 6.21C145.22 7.19 145.51 8.3 145.51 9.54ZM137.77 12.57C138.93 12.57 139.79 12.31 140.35 11.79C140.91 11.25 141.19 10.5 141.19 9.54C141.19 7.5 140.05 6.48 137.77 6.48H134.44V12.57H137.77ZM152.692 9.96C153.232 9.08 153.932 8.39 154.792 7.89C155.672 7.39 156.672 7.14 157.792 7.14V11.55H156.682C155.362 11.55 154.362 11.86 153.682 12.48C153.022 13.1 152.692 14.18 152.692 15.72V24H148.492V7.38H152.692V9.96ZM168.001 24.27C166.401 24.27 164.961 23.92 163.681 23.22C162.401 22.5 161.391 21.49 160.651 20.19C159.931 18.89 159.571 17.39 159.571 15.69C159.571 13.99 159.941 12.49 160.681 11.19C161.441 9.89 162.471 8.89 163.771 8.19C165.071 7.47 166.521 7.11 168.121 7.11C169.721 7.11 171.171 7.47 172.471 8.19C173.771 8.89 174.791 9.89 175.531 11.19C176.291 12.49 176.671 13.99 176.671 15.69C176.671 17.39 176.281 18.89 175.501 20.19C174.741 21.49 173.701 22.5 172.381 23.22C171.081 23.92 169.621 24.27 168.001 24.27ZM168.001 20.61C168.761 20.61 169.471 20.43 170.131 20.07C170.811 19.69 171.351 19.13 171.751 18.39C172.151 17.65 172.351 16.75 172.351 15.69C172.351 14.11 171.931 12.9 171.091 12.06C170.271 11.2 169.261 10.77 168.061 10.77C166.861 10.77 165.851 11.2 165.031 12.06C164.231 12.9 163.831 14.11 163.831 15.69C163.831 17.27 164.221 18.49 165.001 19.35C165.801 20.19 166.801 20.61 168.001 20.61Z" fill="#1479FF"/>
</svg>
