<svg width="29" height="26" viewBox="0 0 29 26" fill="none" xmlns="http://www.w3.org/2000/svg">
<path fill-rule="evenodd" clip-rule="evenodd" d="M2.83333 0H25.5C27.0648 0 28.3333 1.13451 28.3333 2.534V22.806C28.3333 24.2055 27.0648 25.34 25.5 25.34H2.83333C1.26853 25.34 0 24.2055 0 22.806V2.534C0 1.13451 1.26853 0 2.83333 0ZM2.83333 2.534V22.806H25.5V2.534H2.83333ZM12.9385 12.6756H15.5833V20.272H18.4167V12.6756H21.2251V10.1416H18.4167V8.86899C18.4167 8.16924 19.0509 7.60199 19.8333 7.60199H21.25V5.06799H19.8333C17.4861 5.06799 15.5833 6.76976 15.5833 8.86899V10.1416H12.9385V12.6756Z" fill="#1476FF"/>
</svg>
