<svg width="29" height="26" viewBox="0 0 29 26" fill="none" xmlns="http://www.w3.org/2000/svg">
<path fill-rule="evenodd" clip-rule="evenodd" d="M19.8333 0H8.5C3.80558 0 0 3.40353 0 7.60199V17.738C0 21.9364 3.80558 25.34 8.5 25.34H19.8333C24.5278 25.34 28.3333 21.9364 28.3333 17.738V7.60199C28.3333 3.40353 24.5278 0 19.8333 0ZM2.83333 7.60199C2.83333 4.80301 5.37039 2.534 8.5 2.534H19.8333C22.9629 2.534 25.5 4.80301 25.5 7.60199V17.738C25.5 20.5369 22.9629 22.806 19.8333 22.806H8.5C5.37039 22.806 2.83333 20.5369 2.83333 17.738V7.60199ZM14.1667 19.005C10.2546 19.005 7.08333 16.1687 7.08333 12.67C7.08333 9.17126 10.2546 6.33499 14.1667 6.33499C18.0787 6.33499 21.25 9.17126 21.25 12.67C21.25 16.1687 18.0787 19.005 14.1667 19.005ZM14.1667 16.471C16.5139 16.471 18.4167 14.7692 18.4167 12.67C18.4167 10.5708 16.5139 8.86899 14.1667 8.86899C11.8195 8.86899 9.91667 10.5708 9.91667 12.67C9.91667 14.7692 11.8195 16.471 14.1667 16.471ZM22.6667 6.33499C22.6667 7.03474 22.0324 7.60199 21.25 7.60199C20.4676 7.60199 19.8333 7.03474 19.8333 6.33499C19.8333 5.63525 20.4676 5.06799 21.25 5.06799C22.0324 5.06799 22.6667 5.63525 22.6667 6.33499Z" fill="#1476FF"/>
</svg>
