<svg width="26" height="28" viewBox="0 0 26 28" fill="none" xmlns="http://www.w3.org/2000/svg">
<path fill-rule="evenodd" clip-rule="evenodd" d="M11.446 8.71595C12.1152 7.75592 12.3552 6.74412 11.5983 5.85102C9.89981 3.32105 8.75754 1.75652 8.04105 1.00308C6.67891 -0.429302 4.43816 -0.235549 3.25845 1.00186C2.62482 1.66648 2.41031 1.89472 1.7597 2.59818C-1.86426 6.45802 0.345817 14.6176 6.22102 20.878C12.0949 27.137 19.7592 29.4909 23.3908 25.6229C23.9911 25.0068 24.4995 24.4654 24.9003 24.0143C26.0564 22.7136 26.2319 20.4334 24.8927 18.9522C24.2061 18.1927 22.8046 17.0355 20.328 15.1496C19.5695 14.4276 18.6701 14.5841 17.8456 15.1599C17.4489 15.4369 17.1603 15.7172 16.6153 16.2979L15.6255 17.3521C15.4952 17.4909 13.7251 16.5473 12.0068 14.7164C10.2876 12.8844 9.40176 11.0001 9.5315 10.8619C9.79907 10.5771 10.1292 10.2255 10.5219 9.80705C10.6948 9.62279 10.7775 9.53358 10.8835 9.41496C11.1044 9.16784 11.2873 8.94357 11.446 8.71595ZM17.4512 19.2966L18.4411 18.2423C18.7411 17.9226 18.9355 17.7261 19.0937 17.5906C21.2632 19.2491 22.5197 20.292 23.0329 20.8597C23.3411 21.2005 23.2932 21.8224 23.0253 22.1238C22.6546 22.5409 22.173 23.0538 21.582 23.6607C19.2337 26.1615 13.0468 24.2614 8.0471 18.9339C3.04579 13.6047 1.26166 7.01768 3.59223 4.53538C4.24021 3.83481 4.44551 3.61638 5.0701 2.96124C5.30429 2.7156 5.94219 2.66044 6.22707 2.96002C6.7787 3.54009 7.80196 4.93483 9.30722 7.16692C9.2293 7.26991 9.13197 7.38629 9.01353 7.5188C8.9266 7.61606 8.85417 7.69421 8.69584 7.86293C8.30342 8.28107 7.9736 8.63237 7.7064 8.91678C6.02316 10.7085 7.45667 13.7578 10.1807 16.6605C12.9029 19.5612 15.7686 21.0888 17.4512 19.2966Z" fill="#1476FF"/>
</svg>
