<svg width="30" height="25" viewBox="0 0 30 25" fill="none" xmlns="http://www.w3.org/2000/svg">
<path fill-rule="evenodd" clip-rule="evenodd" d="M27.086 3.17798L29.0902 3.38731L28.1893 5.00211C27.75 5.78958 27.3102 6.57705 26.87 7.36453C26.8178 7.53131 26.726 7.67753 26.5903 7.8679C26.5337 7.94744 26.34 8.20046 26.3309 8.21261C26.2798 8.28121 26.2419 8.3353 26.2147 8.37864V11.4049C26.2147 19.1488 17.8352 24.0697 9.92168 24.0697C8.30239 24.0697 7.0721 24.0003 5.66333 23.7254C3.34496 23.2729 1.61964 22.3735 0.830129 20.8016L0.0172984 19.1832L1.99267 19.0207C3.77967 18.8738 5.32906 18.5693 6.51891 18.1616C3.25234 17.6917 1.42177 16.4086 1.42177 13.9989V12.7319H2.83843C3.14969 12.7319 3.43035 12.7093 3.68127 12.6679C1.22967 11.3569 0.00173082 9.25389 0.00173082 6.33692C0.00146293 6.21259 0.00146293 6.21259 0.000626947 6.07966C-0.00858297 4.60937 0.0797189 3.82376 0.52976 2.82109C0.818186 2.17849 1.23509 1.5836 1.79619 1.03852L2.86522 0L3.90458 1.06234C7.32975 4.56323 10.7156 6.68716 14.1726 6.94406C14.1873 3.71363 16.9172 1.26893 20.5478 1.26893C22.2404 1.26893 23.7757 1.8435 24.9822 2.87954C25.6425 3.0009 26.3438 3.10046 27.086 3.17798ZM23.9539 5.27327L23.5196 5.18532L23.2197 4.89096C22.4945 4.17926 21.5842 3.80293 20.5478 3.80293C18.4753 3.80293 17.0059 5.12362 17.0059 6.97042C17.0059 7.27224 16.9971 7.46188 16.9551 7.71114C16.7873 8.70575 16.1636 9.50442 14.8808 9.50442C10.6336 9.50442 6.80192 7.46949 3.06551 3.99393C2.87289 4.51762 2.82759 5.05593 2.83392 6.06546C2.83477 6.20048 2.83477 6.20048 2.83506 6.33692C2.83506 8.93174 4.01049 10.3511 6.79358 11.1422L7.78112 11.4229V12.3497C7.78112 13.4735 6.59064 14.5314 4.8488 15.0052C5.64728 15.547 7.28025 15.8394 9.92218 15.8394H11.3388V17.1064C11.3388 18.9217 9.00663 20.343 5.48356 21.0852C6.63252 21.4 8.16235 21.5357 9.92168 21.5357C16.4588 21.5357 23.3814 17.4704 23.3814 11.4049V8.23742C23.3814 7.8652 23.502 7.5421 23.7025 7.20617C23.7808 7.07483 23.8671 6.94961 23.9736 6.80679C23.9936 6.7799 24.068 6.68248 24.1271 6.6046L24.2393 6.40378C24.4213 6.07836 24.6031 5.75295 24.7849 5.42753C24.5024 5.37967 24.2254 5.32825 23.9539 5.27327Z" fill="#1476FF"/>
</svg>
