<svg width="174" height="45" viewBox="0 0 174 45" fill="none" xmlns="http://www.w3.org/2000/svg">
<path d="M1.05 22.5C1.05 20.44 1.51 18.6 2.43 16.98C3.37 15.34 4.64 14.07 6.24 13.17C7.86 12.25 9.67 11.79 11.67 11.79C14.01 11.79 16.06 12.39 17.82 13.59C19.58 14.79 20.81 16.45 21.51 18.57H16.68C16.2 17.57 15.52 16.82 14.64 16.32C13.78 15.82 12.78 15.57 11.64 15.57C10.42 15.57 9.33 15.86 8.37 16.44C7.43 17 6.69 17.8 6.15 18.84C5.63 19.88 5.37 21.1 5.37 22.5C5.37 23.88 5.63 25.1 6.15 26.16C6.69 27.2 7.43 28.01 8.37 28.59C9.33 29.15 10.42 29.43 11.64 29.43C12.78 29.43 13.78 29.18 14.64 28.68C15.52 28.16 16.2 27.4 16.68 26.4H21.51C20.81 28.54 19.58 30.21 17.82 31.41C16.08 32.59 14.03 33.18 11.67 33.18C9.67 33.18 7.86 32.73 6.24 31.83C4.64 30.91 3.37 29.64 2.43 28.02C1.51 26.4 1.05 24.56 1.05 22.5ZM24.0173 24.63C24.0173 22.95 24.3473 21.46 25.0073 20.16C25.6873 18.86 26.5973 17.86 27.7373 17.16C28.8973 16.46 30.1873 16.11 31.6073 16.11C32.8473 16.11 33.9273 16.36 34.8473 16.86C35.7873 17.36 36.5373 17.99 37.0973 18.75V16.38H41.3273V33H37.0973V30.57C36.5573 31.35 35.8073 32 34.8473 32.52C33.9073 33.02 32.8173 33.27 31.5773 33.27C30.1773 33.27 28.8973 32.91 27.7373 32.19C26.5973 31.47 25.6873 30.46 25.0073 29.16C24.3473 27.84 24.0173 26.33 24.0173 24.63ZM37.0973 24.69C37.0973 23.67 36.8973 22.8 36.4973 22.08C36.0973 21.34 35.5573 20.78 34.8773 20.4C34.1973 20 33.4673 19.8 32.6873 19.8C31.9073 19.8 31.1873 19.99 30.5273 20.37C29.8673 20.75 29.3273 21.31 28.9073 22.05C28.5073 22.77 28.3073 23.63 28.3073 24.63C28.3073 25.63 28.5073 26.51 28.9073 27.27C29.3273 28.01 29.8673 28.58 30.5273 28.98C31.2073 29.38 31.9273 29.58 32.6873 29.58C33.4673 29.58 34.1973 29.39 34.8773 29.01C35.5573 28.61 36.0973 28.05 36.4973 27.33C36.8973 26.59 37.0973 25.71 37.0973 24.69ZM49.6294 18.81C50.1694 18.01 50.9094 17.36 51.8494 16.86C52.8094 16.36 53.8994 16.11 55.1194 16.11C56.5394 16.11 57.8194 16.46 58.9594 17.16C60.1194 17.86 61.0294 18.86 61.6894 20.16C62.3694 21.44 62.7094 22.93 62.7094 24.63C62.7094 26.33 62.3694 27.84 61.6894 29.16C61.0294 30.46 60.1194 31.47 58.9594 32.19C57.8194 32.91 56.5394 33.27 55.1194 33.27C53.8794 33.27 52.7894 33.03 51.8494 32.55C50.9294 32.05 50.1894 31.41 49.6294 30.63V33H45.4294V10.8H49.6294V18.81ZM58.4194 24.63C58.4194 23.63 58.2094 22.77 57.7894 22.05C57.3894 21.31 56.8494 20.75 56.1694 20.37C55.5094 19.99 54.7894 19.8 54.0094 19.8C53.2494 19.8 52.5294 20 51.8494 20.4C51.1894 20.78 50.6494 21.34 50.2294 22.08C49.8294 22.82 49.6294 23.69 49.6294 24.69C49.6294 25.69 49.8294 26.56 50.2294 27.3C50.6494 28.04 51.1894 28.61 51.8494 29.01C52.5294 29.39 53.2494 29.58 54.0094 29.58C54.7894 29.58 55.5094 29.38 56.1694 28.98C56.8494 28.58 57.3894 28.01 57.7894 27.27C58.2094 26.53 58.4194 25.65 58.4194 24.63ZM67.8914 14.4C67.1514 14.4 66.5314 14.17 66.0314 13.71C65.5514 13.23 65.3114 12.64 65.3114 11.94C65.3114 11.24 65.5514 10.66 66.0314 10.2C66.5314 9.72 67.1514 9.48 67.8914 9.48C68.6314 9.48 69.2414 9.72 69.7214 10.2C70.2214 10.66 70.4714 11.24 70.4714 11.94C70.4714 12.64 70.2214 13.23 69.7214 13.71C69.2414 14.17 68.6314 14.4 67.8914 14.4ZM69.9614 16.38V33H65.7614V16.38H69.9614ZM83.321 16.14C85.301 16.14 86.901 16.77 88.121 18.03C89.341 19.27 89.951 21.01 89.951 23.25V33H85.751V23.82C85.751 22.5 85.421 21.49 84.761 20.79C84.101 20.07 83.201 19.71 82.061 19.71C80.901 19.71 79.981 20.07 79.301 20.79C78.641 21.49 78.311 22.5 78.311 23.82V33H74.111V16.38H78.311V18.45C78.871 17.73 79.581 17.17 80.441 16.77C81.321 16.35 82.281 16.14 83.321 16.14ZM109.395 24.33C109.395 24.93 109.355 25.47 109.275 25.95H97.125C97.225 27.15 97.645 28.09 98.385 28.77C99.125 29.45 100.035 29.79 101.115 29.79C102.675 29.79 103.785 29.12 104.445 27.78H108.975C108.495 29.38 107.575 30.7 106.215 31.74C104.855 32.76 103.185 33.27 101.205 33.27C99.605 33.27 98.165 32.92 96.885 32.22C95.625 31.5 94.635 30.49 93.915 29.19C93.215 27.89 92.865 26.39 92.865 24.69C92.865 22.97 93.215 21.46 93.915 20.16C94.615 18.86 95.595 17.86 96.855 17.16C98.115 16.46 99.565 16.11 101.205 16.11C102.785 16.11 104.195 16.45 105.435 17.13C106.695 17.81 107.665 18.78 108.345 20.04C109.045 21.28 109.395 22.71 109.395 24.33ZM105.045 23.13C105.025 22.05 104.635 21.19 103.875 20.55C103.115 19.89 102.185 19.56 101.085 19.56C100.045 19.56 99.165 19.88 98.445 20.52C97.745 21.14 97.315 22.01 97.155 23.13H105.045ZM117.351 19.83V27.87C117.351 28.43 117.481 28.84 117.741 29.1C118.021 29.34 118.481 29.46 119.121 29.46H121.071V33H118.431C114.891 33 113.121 31.28 113.121 27.84V19.83H111.141V16.38H113.121V12.27H117.351V16.38H121.071V19.83H117.351Z" fill="black"/>
<path d="M141.34 18.54C141.34 19.66 141.07 20.71 140.53 21.69C140.01 22.67 139.18 23.46 138.04 24.06C136.92 24.66 135.5 24.96 133.78 24.96H130.27V33H126.07V12.06H133.78C135.4 12.06 136.78 12.34 137.92 12.9C139.06 13.46 139.91 14.23 140.47 15.21C141.05 16.19 141.34 17.3 141.34 18.54ZM133.6 21.57C134.76 21.57 135.62 21.31 136.18 20.79C136.74 20.25 137.02 19.5 137.02 18.54C137.02 16.5 135.88 15.48 133.6 15.48H130.27V21.57H133.6ZM148.522 18.96C149.062 18.08 149.762 17.39 150.622 16.89C151.502 16.39 152.502 16.14 153.622 16.14V20.55H152.512C151.192 20.55 150.192 20.86 149.512 21.48C148.852 22.1 148.522 23.18 148.522 24.72V33H144.322V16.38H148.522V18.96ZM163.831 33.27C162.231 33.27 160.791 32.92 159.511 32.22C158.231 31.5 157.221 30.49 156.481 29.19C155.761 27.89 155.401 26.39 155.401 24.69C155.401 22.99 155.771 21.49 156.511 20.19C157.271 18.89 158.301 17.89 159.601 17.19C160.901 16.47 162.351 16.11 163.951 16.11C165.551 16.11 167.001 16.47 168.301 17.19C169.601 17.89 170.621 18.89 171.361 20.19C172.121 21.49 172.501 22.99 172.501 24.69C172.501 26.39 172.111 27.89 171.331 29.19C170.571 30.49 169.531 31.5 168.211 32.22C166.911 32.92 165.451 33.27 163.831 33.27ZM163.831 29.61C164.591 29.61 165.301 29.43 165.961 29.07C166.641 28.69 167.181 28.13 167.581 27.39C167.981 26.65 168.181 25.75 168.181 24.69C168.181 23.11 167.761 21.9 166.921 21.06C166.101 20.2 165.091 19.77 163.891 19.77C162.691 19.77 161.681 20.2 160.861 21.06C160.061 21.9 159.661 23.11 159.661 24.69C159.661 26.27 160.051 27.49 160.831 28.35C161.631 29.19 162.631 29.61 163.831 29.61Z" fill="#1479FF"/>
</svg>
